<?xml version="1.0" encoding="UTF-8" standalone="no"?>
<svg
   xmlns:dc="http://purl.org/dc/elements/1.1/"
   xmlns:cc="http://creativecommons.org/ns#"
   xmlns:rdf="http://www.w3.org/1999/02/22-rdf-syntax-ns#"
   xmlns:svg="http://www.w3.org/2000/svg"
   xmlns="http://www.w3.org/2000/svg"
   xmlns:sodipodi="http://sodipodi.sourceforge.net/DTD/sodipodi-0.dtd"
   xmlns:inkscape="http://www.inkscape.org/namespaces/inkscape"
   version="1.1"
   x="0px"
   y="0px"
   viewBox="0 0 100 100"
   enable-background="new 0 0 100 100"
   xml:space="preserve"
   id="svg2"
   inkscape:version="0.48.4 r9939"
   width="100%"
   height="100%"
   sodipodi:docname="malt_whisky.svg"><metadata
     id="metadata16"><rdf:RDF><cc:Work
         rdf:about=""><dc:format>image/svg+xml</dc:format><dc:type
           rdf:resource="http://purl.org/dc/dcmitype/StillImage" /><dc:title /></cc:Work></rdf:RDF></metadata><defs
     id="defs14" /><sodipodi:namedview
     pagecolor="#ffffff"
     bordercolor="#666666"
     borderopacity="1"
     objecttolerance="10"
     gridtolerance="10"
     guidetolerance="10"
     inkscape:pageopacity="0"
     inkscape:pageshadow="2"
     inkscape:window-width="1235"
     inkscape:window-height="776"
     id="namedview12"
     showgrid="false"
     inkscape:zoom="1.888"
     inkscape:cx="23.499"
     inkscape:cy="27.5"
     inkscape:window-x="45"
     inkscape:window-y="24"
     inkscape:window-maximized="1"
     inkscape:current-layer="svg2"
     inkscape:snap-bbox="false" /><g
     id="g2983"><path
       inkscape:connector-curvature="0"
       id="path2993"
       d="M 28.517175,90.0625 C 28.200739,89.668713 27.724801,79.604486 27.342664,65.226192 26.713286,41.545177 26.7216,41.00353 27.750157,38.678307 c 0.577488,-1.305508 1.944359,-3.363623 3.037491,-4.573589 1.946427,-2.154462 1.980697,-2.265139 1.657839,-5.35407 -0.197845,-1.892878 -0.03261,-4.799608 0.413216,-7.269127 0.408588,-2.263248 0.73498,-6.523597 0.725315,-9.467443 -0.02591,-7.891659 -0.215429,-7.624248 5.403467,-7.624248 2.838612,0 4.842193,0.230079 5.059043,0.58095 0.197476,0.319522 0.356863,3.358452 0.354194,6.753178 -0.0026,3.394725 0.337472,7.840661 0.755868,9.879856 0.491857,2.397232 0.636715,4.877597 0.40986,7.017938 -0.347053,3.274394 -0.329429,3.334031 1.624328,5.496607 1.086353,1.202463 2.452381,3.26507 3.035617,4.583571 1.041965,2.355537 1.049255,2.817756 0.418734,26.547885 -0.391586,14.737627 -0.853438,24.40866 -1.184961,24.812685 -0.399457,0.486817 -3.172886,0.662076 -10.477117,0.662076 -7.310227,0 -10.074364,-0.174862 -10.465876,-0.662076 z m 19.124926,-5.561441 c 0.185711,-1.966366 0.339351,-4.707362 0.341422,-6.091101 l 0.0038,-2.51589 -9.004237,0 -9.004237,0 0.0032,1.721398 c 0.0017,0.946769 0.156247,3.687765 0.343336,6.091102 l 0.34016,4.369703 8.31948,0 8.31948,0 0.337657,-3.575212 2e-6,0 z M 48.516949,42.23429 c 0,-2.289363 -1.040637,-4.395472 -3.537261,-7.158935 -1.865298,-2.064662 -1.889944,-2.153184 -2.018856,-7.251199 -0.07178,-2.838561 -0.311724,-7.127387 -0.533214,-9.530724 l -0.402709,-4.369703 -3.041858,0 -3.041859,0 -0.405227,4.369703 c -0.222876,2.403337 -0.450547,6.697027 -0.505936,9.541534 -0.0926,4.755721 -0.210288,5.288407 -1.462685,6.620763 -2.679733,2.850819 -4.118191,5.510323 -4.118191,7.613946 l 0,2.044732 9.533898,0 9.533898,0 0,-1.880117 z m -6.355932,-33.342341 0,-2.383474 -3.177966,0 -3.177966,0 0,2.383474 0,2.383475 3.177966,0 3.177966,0 0,-2.383475 z"
       style="fill:#4d4d4d" /><path
       inkscape:connector-curvature="0"
       id="path2995"
       d="M 55.647556,90.162851 C 55.172748,89.394596 53.193277,67.88996 53.51919,67.040645 c 0.342211,-0.891789 23.340723,-0.997954 23.889338,-0.110277 0.417248,0.675122 -1.326838,20.872928 -1.951729,22.602471 -0.424777,1.175675 -0.558831,1.191737 -9.946329,1.191737 -6.134615,0 -9.639103,-0.199592 -9.862914,-0.561725 z M 74.474104,77.350636 c 0.0021,-0.946769 0.155711,-3.330244 0.341422,-5.296611 l 0.337657,-3.575211 -9.650253,0 -9.650253,0 0.371432,4.899364 c 0.204288,2.69465 0.474595,5.078125 0.600683,5.29661 0.126088,0.218485 4.147918,0.397246 8.937399,0.397246 l 8.708148,0 0.0038,-1.721398 4e-6,0 z"
       style="fill:#4d4d4d" /></g></svg>