<?xml version="1.0" encoding="UTF-8" standalone="no"?>
<svg
   xmlns:dc="http://purl.org/dc/elements/1.1/"
   xmlns:cc="http://creativecommons.org/ns#"
   xmlns:rdf="http://www.w3.org/1999/02/22-rdf-syntax-ns#"
   xmlns:svg="http://www.w3.org/2000/svg"
   xmlns="http://www.w3.org/2000/svg"
   xmlns:sodipodi="http://sodipodi.sourceforge.net/DTD/sodipodi-0.dtd"
   xmlns:inkscape="http://www.inkscape.org/namespaces/inkscape"
   version="1.1"
   x="0px"
   y="0px"
   viewBox="0 0 100 100"
   enable-background="new 0 0 100 100"
   xml:space="preserve"
   id="svg2"
   inkscape:version="0.48.4 r9939"
   width="100%"
   height="100%"
   sodipodi:docname="owner_bed.svg"><metadata
     id="metadata18"><rdf:RDF><cc:Work
         rdf:about=""><dc:format>image/svg+xml</dc:format><dc:type
           rdf:resource="http://purl.org/dc/dcmitype/StillImage" /><dc:title></dc:title></cc:Work></rdf:RDF></metadata><defs
     id="defs16" /><sodipodi:namedview
     pagecolor="#ffffff"
     bordercolor="#666666"
     borderopacity="1"
     objecttolerance="10"
     gridtolerance="10"
     guidetolerance="10"
     inkscape:pageopacity="0"
     inkscape:pageshadow="2"
     inkscape:window-width="1235"
     inkscape:window-height="776"
     id="namedview14"
     showgrid="false"
     inkscape:zoom="1.888"
     inkscape:cx="50"
     inkscape:cy="62.5"
     inkscape:window-x="45"
     inkscape:window-y="24"
     inkscape:window-maximized="1"
     inkscape:current-layer="svg2" /><path
     style="fill:#4d4d4d"
     d="m 49.674277,60.620651 c 5.15189,-0.08664 13.732399,-0.08678 19.067797,-3.14e-4 5.335397,0.08647 1.120214,0.157353 -9.367074,0.157526 -10.487288,1.72e-4 -14.852614,-0.07057 -9.700723,-0.157212 z"
     id="path2997"
     inkscape:connector-curvature="0" /><g
     id="g3001"
     transform="translate(-0.52966102,69.385593)"><path
       inkscape:connector-curvature="0"
       id="path2995"
       d="m 11.016949,11.038136 c -0.916432,-0.91643 -0.916432,-55.015771 0,-55.932204 0.819342,-0.819342 3.206082,-0.819342 4.025424,0 0.43294,0.432941 0.635593,2.966102 0.635593,7.944915 l 0,7.309322 5.102744,0 c 6.419404,0 8.652365,0.671664 11.879766,3.573375 2.484141,2.233457 2.643682,2.294645 4.580596,1.756768 1.257655,-0.349247 10.360717,-0.558388 24.384987,-0.560239 l 22.378178,-0.003 0,-3.854605 c 0,-4.566262 0.843803,-6.208955 3.189365,-6.208955 0.980778,0 1.739486,0.372161 2.088612,1.024502 0.35206,0.657832 0.548294,8.700827 0.548294,22.47276 0,23.305387 0.02433,23.112908 -2.920932,23.112908 -2.0351,0 -2.905339,-1.859778 -2.905339,-6.208955 l 0,-3.854605 -34.163135,0 -34.163136,0 0,4.396187 c 0,4.771398 -0.418679,5.667373 -2.648305,5.667373 -0.757415,0 -1.663136,-0.286017 -2.012712,-0.635593 z m 72.987288,-22.404661 0,-7.680085 -23.300916,0 -23.300917,0 -0.933141,1.986229 c -0.980381,2.086779 -2.74883,2.848558 -4.069118,1.752816 -0.384079,-0.318758 -0.852401,-1.741029 -1.040714,-3.160602 -0.188313,-1.419573 -0.813893,-3.180465 -1.390178,-3.913093 -1.489458,-1.893538 -5.277499,-3.021282 -10.148352,-3.021282 l -4.142935,0 0,10.85805 0,10.858051 34.163136,0 34.163135,0 0,-7.680084 z"
       style="fill:#4d4d4d" /><path
       inkscape:connector-curvature="0"
       id="path2999"
       d="m 38.788211,-10.63284 c -0.431513,-0.616071 -0.650069,-1.509874 -0.485682,-1.986229 0.738019,-2.138597 1.241699,-2.190253 21.356445,-2.190253 18.135431,0 19.471868,0.0638 20.290715,0.968613 1.029764,1.137876 1.137947,2.795446 0.240989,3.692404 -0.471897,0.471897 -5.784286,0.635593 -20.626746,0.635593 -19.75246,0 -20.00052,-0.01337 -20.775721,-1.120128 z"
       style="fill:#4d4d4d" /></g></svg>