<?xml version="1.0" encoding="UTF-8" standalone="no"?>
<svg
   xmlns:dc="http://purl.org/dc/elements/1.1/"
   xmlns:cc="http://creativecommons.org/ns#"
   xmlns:rdf="http://www.w3.org/1999/02/22-rdf-syntax-ns#"
   xmlns:svg="http://www.w3.org/2000/svg"
   xmlns="http://www.w3.org/2000/svg"
   xmlns:sodipodi="http://sodipodi.sourceforge.net/DTD/sodipodi-0.dtd"
   xmlns:inkscape="http://www.inkscape.org/namespaces/inkscape"
   version="1.1"
   x="0px"
   y="0px"
   viewBox="0 0 100 100"
   enable-background="new 0 0 100 100"
   xml:space="preserve"
   id="svg2"
   inkscape:version="0.48.4 r9939"
   width="100%"
   height="100%"
   sodipodi:docname="shooting.svg"><metadata
     id="metadata46"><rdf:RDF><cc:Work
         rdf:about=""><dc:format>image/svg+xml</dc:format><dc:type
           rdf:resource="http://purl.org/dc/dcmitype/StillImage" /><dc:title></dc:title></cc:Work></rdf:RDF></metadata><defs
     id="defs44" /><sodipodi:namedview
     pagecolor="#ffffff"
     bordercolor="#666666"
     borderopacity="1"
     objecttolerance="10"
     gridtolerance="10"
     guidetolerance="10"
     inkscape:pageopacity="0"
     inkscape:pageshadow="2"
     inkscape:window-width="1235"
     inkscape:window-height="776"
     id="namedview42"
     showgrid="false"
     inkscape:zoom="1.888"
     inkscape:cx="50"
     inkscape:cy="62.5"
     inkscape:window-x="45"
     inkscape:window-y="24"
     inkscape:window-maximized="1"
     inkscape:current-layer="svg2" /><g
     id="g3058"
     transform="translate(112.8178,15.783898)"><g
       transform="translate(-113.34746,-14.830508)"
       id="g3051"><path
         style="fill:#4d4d4d"
         d="m 72.98546,78.747796 c -0.0864,-2.250153 -0.005,-4.991149 0.180786,-6.091102 0.329671,-1.951307 0.393286,-1.999914 2.617382,-1.999914 2.016825,0 2.319582,0.159704 2.627343,1.385919 0.191314,0.762256 0.29354,3.503252 0.227169,6.091102 l -0.120675,4.705182 -2.687454,0 -2.687453,0 -0.157098,-4.091187 z"
         id="path3027"
         inkscape:connector-curvature="0" /><g
         id="g3048"><path
           inkscape:connector-curvature="0"
           id="path3029"
           d="m 80.826271,82.397599 c 0,-0.242762 0.155895,-0.597279 0.346432,-0.787817 0.190538,-0.190537 0.295298,-2.097703 0.232799,-4.238146 -0.0625,-2.140443 0.04579,-4.526921 0.240648,-5.303285 0.315098,-1.255447 0.606402,-1.411571 2.633781,-1.411571 2.224097,0 2.287711,0.04861 2.617383,1.999914 0.185835,1.099953 0.267189,3.840949 0.180786,6.091102 l -0.157098,4.091187 -3.047366,0 c -1.67605,0 -3.047365,-0.198623 -3.047365,-0.441384 z"
           style="fill:#4d4d4d" /></g><path
         style="fill:#4d4d4d"
         d="m 89.432523,79.527547 c -0.07323,-1.82013 0.122424,-4.560651 0.434798,-6.090047 0.565402,-2.768234 0.577008,-2.78072 2.584786,-2.78072 2.6995,0 3.316774,1.507955 3.110469,7.598646 l -0.155254,4.583557 -2.920822,-0.0011 -2.920822,-0.0011 -0.133155,-3.309327 z"
         id="path3031"
         inkscape:connector-curvature="0" /><path
         style="fill:#4d4d4d"
         d="m 73.685755,67.346398 c 0.403962,-1.937489 1.633292,-4.104873 2.328267,-4.104873 0.517709,0 2.163944,3.836116 2.163944,5.042498 0,0.577824 -0.637356,0.783774 -2.425559,0.783774 l -2.425559,0 0.358907,-1.721399 z"
         id="path3037"
         inkscape:connector-curvature="0" /></g><g
       transform="translate(-113.34746,-14.830508)"
       id="g3041"><path
         style="fill:#4d4d4d"
         d="M 11.074788,89.600106 C 6.4280549,85.027479 5.5903798,83.952945 5.7225468,82.734476 5.8392785,81.65831 9.5034887,77.570339 20.091033,66.704285 32.898008,53.56042 34.471747,52.118644 36.011678,52.118644 c 1.541898,0 3.073196,-1.410093 15.673882,-14.433263 7.680769,-7.938294 18.012999,-18.55101 22.96051,-23.583812 l 8.995477,-9.1505504 1.240667,1.1655469 c 0.682368,0.6410507 1.240667,1.4183539 1.240667,1.7273405 0,0.3089865 -2.792764,3.361855 -6.206149,6.784152 -4.875742,4.888479 -6.06794,6.360564 -5.561441,6.867065 C 74.709883,21.849712 75,22.460574 75,22.852594 c 0,0.39202 -6.256621,7.158096 -13.903602,15.035724 -10.563994,10.882623 -13.868902,14.598086 -13.75914,15.46838 0.776478,6.156586 0.760789,6.417899 -0.496328,8.267206 -1.564679,2.301753 -4.168988,3.842198 -6.49569,3.842198 -1.771428,0 -1.948693,0.225741 -10.66825,13.585805 -9.752542,14.942796 -10.527066,15.969279 -12.049492,15.969279 -0.611781,0 -3.323809,-2.24367 -6.55271,-5.42108 z m 32.15111,-27.240609 c 2.360964,-1.394656 3.443884,-5.041997 2.097019,-7.062887 -0.44382,-0.665925 -0.785352,-0.514578 -2.110534,0.935263 -0.95572,1.045625 -1.581027,2.308291 -1.581027,3.192528 0,0.804524 -0.371037,1.992506 -0.824525,2.639948 -0.752387,1.074184 -0.747952,1.177176 0.05069,1.177176 0.481371,0 1.547139,-0.396912 2.368375,-0.882028 z"
         id="path3023"
         inkscape:connector-curvature="0" /><path
         style="fill:#4d4d4d"
         d="m 64.500983,78.255426 c -0.206196,-6.087474 0.411494,-7.598646 3.105937,-7.598646 2.397051,0 2.581096,0.491715 2.844043,7.598465 l 0.169596,4.583738 -2.98216,0 -2.982161,0 -0.155255,-4.583557 z"
         id="path3025"
         inkscape:connector-curvature="0" /><path
         style="fill:#4d4d4d"
         d="m 90.360169,67.991463 c 0,-1.500516 1.421566,-4.749938 2.078016,-4.749938 0.772435,0 2.159273,2.874686 2.159273,4.475816 0,1.222424 -0.200861,1.350456 -2.118644,1.350456 -1.776699,0 -2.118645,-0.173719 -2.118645,-1.076334 z"
         id="path3033"
         inkscape:connector-curvature="0" /><path
         style="fill:#4d4d4d"
         d="m 81.885593,68.284023 c 0,-1.460357 1.717975,-5.087746 2.317385,-4.893001 0.690354,0.224293 1.683208,2.126361 2.202891,4.220207 0.355059,1.430569 0.317944,1.456568 -2.079382,1.456568 -1.80174,0 -2.440894,-0.205233 -2.440894,-0.783774 z"
         id="path3035"
         inkscape:connector-curvature="0" /><path
         style="fill:#4d4d4d"
         d="m 65.265513,67.611229 c 0.475598,-1.98349 1.71656,-4.369704 2.272484,-4.369704 0.626107,0 2.165393,3.351396 2.165393,4.714582 0,0.965145 -0.315523,1.11169 -2.393566,1.11169 -2.342723,0 -2.386147,-0.03094 -2.044311,-1.456568 z"
         id="path3039"
         inkscape:connector-curvature="0" /></g></g></svg>