<?xml version="1.0" encoding="UTF-8" standalone="no"?>
<svg
   xmlns:dc="http://purl.org/dc/elements/1.1/"
   xmlns:cc="http://creativecommons.org/ns#"
   xmlns:rdf="http://www.w3.org/1999/02/22-rdf-syntax-ns#"
   xmlns:svg="http://www.w3.org/2000/svg"
   xmlns="http://www.w3.org/2000/svg"
   xmlns:sodipodi="http://sodipodi.sourceforge.net/DTD/sodipodi-0.dtd"
   xmlns:inkscape="http://www.inkscape.org/namespaces/inkscape"
   version="1.1"
   x="0px"
   y="0px"
   viewBox="0 0 512 512"
   enable-background="new 0 0 512 512"
   xml:space="preserve"
   id="svg2"
   inkscape:version="0.48.4 r9939"
   width="100%"
   height="100%"
   sodipodi:docname="sperm_only.svg"><metadata
     id="metadata18"><rdf:RDF><cc:Work
         rdf:about=""><dc:format>image/svg+xml</dc:format><dc:type
           rdf:resource="http://purl.org/dc/dcmitype/StillImage" /><dc:title></dc:title></cc:Work></rdf:RDF></metadata><defs
     id="defs16" /><sodipodi:namedview
     pagecolor="#ffffff"
     bordercolor="#666666"
     borderopacity="1"
     objecttolerance="10"
     gridtolerance="10"
     guidetolerance="10"
     inkscape:pageopacity="0"
     inkscape:pageshadow="2"
     inkscape:window-width="1235"
     inkscape:window-height="776"
     id="namedview14"
     showgrid="false"
     inkscape:zoom="0.36875"
     inkscape:cx="256"
     inkscape:cy="320"
     inkscape:window-x="45"
     inkscape:window-y="24"
     inkscape:window-maximized="1"
     inkscape:current-layer="svg2" /><g
     id="g4"
     style="fill:#4d4d4d"
     transform="translate(2.7118644,4.8813564)"><path
       d="m 267.195,355.797 c 3.109,-34.859 -10.047,-55.344 -20.75,-71.984 -7.234,-11.234 -12.938,-20.094 -12.016,-31 0.766,-9.141 6.812,-15.672 14.453,-23.922 7.453,-8.031 15.891,-17.141 20.359,-30.406 4.984,-14.812 3.875,-31.891 -3.359,-52.203 -1.312,-4.406 -5.391,-7.609 -10.219,-7.609 -5.891,0 -10.672,4.781 -10.672,10.672 0,1.281 0.25,2.5 0.656,3.641 12.469,34.578 0.922,47.016 -12.406,61.406 -8.766,9.453 -18.688,20.156 -20.078,36.625 -1.531,18.141 7.047,31.453 15.328,44.344 9.953,15.469 20.219,31.438 17.328,59.859 -18.828,6.031 -32.828,28.938 -32.828,56.281 0,31.938 19.109,57.844 42.672,57.844 23.578,0 42.672,-25.906 42.672,-57.844 0.001,-26.532 -13.171,-48.892 -31.14,-55.704 z M 255.664,448 c -10.062,0 -21.328,-15.609 -21.328,-36.5 0,-20.891 11.266,-36.5 21.328,-36.5 6.016,0 10.734,5.172 13,8.266 5.297,7.172 8.328,17.469 8.328,28.234 0.016,20.891 -11.25,36.5 -21.328,36.5 z"
       id="path6"
       style="fill:#4d4d4d"
       inkscape:connector-curvature="0" /><path
       d="m 362.336,32 c 0,-17.672 -14.328,-32 -32,-32 H 181.664 c -17.672,0 -32,14.328 -32,32 0,13.688 8.594,25.344 20.656,29.922 v 364.734 c 0,47.141 38.219,85.344 85.344,85.344 47.141,0 85.344,-38.203 85.344,-85.344 V 62.172 C 353.43,57.781 362.336,45.938 362.336,32 z M 181.664,21.344 h 148.672 c 5.875,0 10.656,4.781 10.656,10.656 0,5.891 -4.781,10.672 -10.656,10.672 H 181.664 c -5.875,0 -10.672,-4.781 -10.672,-10.672 0,-5.875 4.797,-10.656 10.672,-10.656 z m 74,469.328 c -35.297,0 -64.016,-28.719 -64.016,-64.016 V 64 H 319.68 v 362.656 c 0,35.297 -28.719,64.016 -64.016,64.016 z"
       id="path8"
       style="fill:#4d4d4d"
       inkscape:connector-curvature="0" /></g></svg>